<svg id="Ebene_2" data-name="Ebene 2" xmlns="http://www.w3.org/2000/svg" viewBox="0 0 450.31 193.3"><defs><style>.cls-1{fill:#221f23;}</style></defs><title>logo</title><path class="cls-1" d="M451.1,256l-91.49-83.45,12-13.23,109.57,97L372.5,352.65q-6-6-12-12.08Z" transform="translate(-30.84 -159.35)"/><path class="cls-1" d="M142.65,351.47,30.84,256.42l110.24-96.37,12,11.46C124.48,198,95.87,224.56,62,256l91.67,83.78Z" transform="translate(-30.84 -159.35)"/><path class="cls-1" d="M256,352.65c-53.21,0-96.64-43.51-96.6-96.7A96.87,96.87,0,0,1,256,159.35c53.23,0,96.65,43.49,96.61,96.69S309.15,352.69,256,352.65Zm-.12-14.84a81.81,81.81,0,1,0-81.64-82A81.88,81.88,0,0,0,255.83,337.81Z" transform="translate(-30.84 -159.35)"/><path class="cls-1" d="M248.06,208.35c0-1.56-.11-2.92,0-4.24a8,8,0,0,1,7.78-7.43c4.11-.08,7.93,2.87,7.89,7.15,0,3.81,1.59,4.68,4.79,5.6a25.73,25.73,0,0,1,18.34,23.74c.21,5-2.86,8.77-7.47,9.08-4.42.31-7.93-2.95-8.43-7.82-.72-7-4.46-10.39-11.5-10.46-2.36,0-4.72-.06-7.08,0a11.5,11.5,0,0,0-11.29,9.66,11.22,11.22,0,0,0,8.56,12.75c5.52,1.49,11.13,2.65,16.66,4.11a27.15,27.15,0,0,1,.57,52.54c-2.2.62-3,1.44-3,3.84.06,5.3-3.11,8.67-7.75,8.78s-8-3.32-8.09-8.8c0-2-.46-2.81-2.64-3.32-11.33-2.64-19-11.61-20.25-23.3-.59-5.51,2.28-9.61,7-10.06,5-.46,8.33,2.74,8.83,8.39a10.3,10.3,0,0,0,10.42,9.83q4,.09,8.09,0a11.52,11.52,0,0,0,11.32-9.65,11.15,11.15,0,0,0-8.18-12.66c-4.86-1.36-9.8-2.44-14.71-3.58-12.15-2.81-20.46-11.12-22.37-22.41a27.06,27.06,0,0,1,19.2-30.77Z" transform="translate(-30.84 -159.35)"/></svg>